<?xml version="1.0" encoding="utf-8"?>
<!-- Generator: Adobe Illustrator 24.3.0, SVG Export Plug-In . SVG Version: 6.00 Build 0)  -->
<svg version="1.1" xmlns="http://www.w3.org/2000/svg" xmlns:xlink="http://www.w3.org/1999/xlink" x="0px" y="0px"
	 viewBox="0 0 200 200" style="enable-background:new 0 0 200 200;" xml:space="preserve">
<style type="text/css">
	.st0{display:none;}
	.st1{display:inline;fill:url(#SVGID_1_);}
	.st2{display:inline;fill:url(#SVGID_2_);}
	.st3{display:inline;fill:url(#SVGID_3_);}
	.st4{display:inline;}
	.st5{fill:url(#SVGID_4_);}
</style>
<g id="Layer_1">
	<g class="st0">
		
			<linearGradient id="SVGID_1_" gradientUnits="userSpaceOnUse" x1="7101.2495" y1="7299.248" x2="7298.7495" y2="7102.748" gradientTransform="matrix(1 0 0 -1 -7100.5 7300.5)">
			<stop  offset="0" style="stop-color:#666666"/>
			<stop  offset="1" style="stop-color:#B2B2B2"/>
		</linearGradient>
		<circle class="st1" cx="100" cy="100" r="97.5"/>
	</g>
	<g class="st0">
		
			<linearGradient id="SVGID_2_" gradientUnits="userSpaceOnUse" x1="7122.2056" y1="7283.813" x2="7278.2056" y2="7117.813" gradientTransform="matrix(1 0 0 -1 -7100.5 7300.5)">
			<stop  offset="0" style="stop-color:#E5E5E5"/>
			<stop  offset="1" style="stop-color:#FFFFFF"/>
		</linearGradient>
		<circle class="st2" cx="100" cy="100" r="93.5"/>
	</g>
	<g class="st0">
		
			<radialGradient id="SVGID_3_" cx="7159.6675" cy="7264.666" r="252.8037" gradientTransform="matrix(1 0 0 -1 -7100.5 7300.5)" gradientUnits="userSpaceOnUse">
			<stop  offset="0.1057" style="stop-color:#FFFFFF"/>
			<stop  offset="1" style="stop-color:#E5E5E5"/>
		</radialGradient>
		<circle class="st3" cx="100" cy="100" r="88.5"/>
	</g>
</g>
<g id="Layer_2_2_" class="st0">
	<g class="st4">
		<path d="M96.7,14.9v11.6h-3.2v-7.6c-0.5,0.4-1,0.7-1.5,1s-1.1,0.5-1.8,0.7v-2.6c1.1-0.3,1.9-0.8,2.5-1.3c0.6-0.5,1.1-1.1,1.4-1.8
			L96.7,14.9L96.7,14.9z"/>
		<path d="M109.5,26.5h-9.5c0.1-0.9,0.4-1.8,1-2.7s1.6-1.8,3.1-2.9c0.9-0.7,1.5-1.2,1.8-1.6c0.3-0.4,0.4-0.7,0.4-1
			c0-0.3-0.1-0.6-0.4-0.9c-0.3-0.2-0.6-0.4-1-0.4c-0.4,0-0.7,0.1-1,0.4s-0.4,0.7-0.5,1.4l-3.2-0.3c0.1-0.9,0.4-1.6,0.7-2.1
			c0.3-0.5,0.8-0.9,1.4-1.2c0.6-0.3,1.4-0.4,2.5-0.4c1.1,0,2,0.1,2.6,0.4c0.6,0.3,1.1,0.6,1.5,1.2c0.4,0.5,0.5,1.1,0.5,1.8
			c0,0.7-0.2,1.4-0.6,2c-0.4,0.6-1.2,1.3-2.2,2.1c-0.6,0.4-1.1,0.8-1.3,0.9c-0.2,0.2-0.5,0.4-0.8,0.7h5
			C109.5,23.9,109.5,26.5,109.5,26.5z"/>
	</g>
	<g class="st4">
		<path d="M177.9,95.8l-3-0.5c0.2-1,0.7-1.7,1.4-2.2c0.7-0.5,1.7-0.8,3-0.8c1.5,0,2.6,0.3,3.2,0.8c0.7,0.6,1,1.3,1,2.1
			c0,0.5-0.1,0.9-0.4,1.3c-0.3,0.4-0.7,0.8-1.2,1.1c0.4,0.1,0.8,0.2,1,0.4c0.4,0.2,0.7,0.5,0.9,0.9s0.3,0.8,0.3,1.4
			c0,0.7-0.2,1.3-0.5,1.9c-0.4,0.6-0.9,1.1-1.5,1.4s-1.5,0.5-2.6,0.5c-1,0-1.9-0.1-2.5-0.4s-1.1-0.6-1.5-1.1
			c-0.4-0.5-0.7-1.1-0.9-1.8l3.2-0.4c0.1,0.6,0.3,1.1,0.6,1.3c0.3,0.2,0.6,0.4,1,0.4c0.4,0,0.8-0.2,1.1-0.5c0.3-0.3,0.4-0.7,0.4-1.2
			c0-0.5-0.1-0.9-0.4-1.2c-0.3-0.3-0.6-0.4-1.1-0.4c-0.2,0-0.6,0.1-1,0.2l0.2-2.3c0.2,0,0.3,0,0.4,0c0.4,0,0.8-0.1,1-0.4
			c0.3-0.3,0.4-0.6,0.4-0.9c0-0.3-0.1-0.6-0.3-0.8c-0.2-0.2-0.5-0.3-0.9-0.3c-0.4,0-0.7,0.1-0.9,0.3S178,95.2,177.9,95.8z"/>
	</g>
	<g class="st4">
		<path d="M17,101.3l3.2-0.4c0.1,0.4,0.2,0.8,0.4,0.9c0.2,0.2,0.4,0.3,0.7,0.3c0.5,0,0.9-0.3,1.2-0.8c0.2-0.4,0.4-1.2,0.5-2.4
			c-0.4,0.4-0.8,0.7-1.2,0.9c-0.4,0.2-0.9,0.3-1.4,0.3c-1,0-1.9-0.4-2.6-1.1c-0.7-0.7-1.1-1.7-1.1-2.8c0-0.8,0.2-1.5,0.5-2.1
			s0.9-1.1,1.5-1.4s1.4-0.5,2.4-0.5c1.1,0,2.1,0.2,2.8,0.6c0.7,0.4,1.2,1,1.7,1.9c0.4,0.9,0.6,2,0.6,3.4c0,2.1-0.4,3.6-1.3,4.5
			s-2.1,1.4-3.6,1.4c-0.9,0-1.6-0.1-2.2-0.3s-1-0.5-1.3-0.9C17.4,102.5,17.1,101.9,17,101.3z M22.8,96.2c0-0.6-0.2-1.1-0.5-1.5
			s-0.7-0.5-1.1-0.5c-0.4,0-0.8,0.2-1.1,0.5c-0.3,0.3-0.4,0.8-0.4,1.4c0,0.6,0.1,1.1,0.4,1.5c0.3,0.3,0.6,0.5,1.1,0.5
			c0.4,0,0.8-0.2,1.1-0.5S22.8,96.8,22.8,96.2z"/>
	</g>
	<g class="st4">
		<path d="M104,176.1l-3.2,0.4c-0.1-0.4-0.2-0.8-0.4-0.9c-0.2-0.2-0.4-0.3-0.7-0.3c-0.5,0-0.9,0.3-1.2,0.8c-0.2,0.4-0.4,1.2-0.5,2.4
			c0.4-0.4,0.8-0.7,1.2-0.9c0.4-0.2,0.9-0.3,1.4-0.3c1,0,1.9,0.4,2.6,1.1c0.7,0.7,1.1,1.7,1.1,2.8c0,0.8-0.2,1.4-0.5,2.1
			c-0.4,0.6-0.9,1.1-1.5,1.4s-1.4,0.5-2.4,0.5c-1.1,0-2.1-0.2-2.8-0.6c-0.7-0.4-1.2-1-1.7-1.9c-0.4-0.9-0.6-2-0.6-3.4
			c0-2.1,0.4-3.6,1.3-4.5s2.1-1.4,3.6-1.4c0.9,0,1.6,0.1,2.2,0.3c0.5,0.2,1,0.5,1.3,0.9C103.6,175,103.8,175.5,104,176.1z
			 M98.2,181.2c0,0.6,0.2,1.1,0.5,1.5s0.7,0.5,1.1,0.5c0.4,0,0.8-0.2,1-0.5c0.3-0.3,0.4-0.8,0.4-1.4c0-0.6-0.1-1.1-0.4-1.5
			c-0.3-0.3-0.7-0.5-1.1-0.5c-0.4,0-0.8,0.2-1.1,0.5C98.3,180.1,98.2,180.6,98.2,181.2z"/>
	</g>
</g>
<g id="Layer_4">
	<g>
		<path d="M143.7,26.4l-3-1.7l-3.1,5.4c1,0.6,2,1.1,3,1.7L143.7,26.4z"/>
		<path d="M55.3,172.8l3,1.7l3.2-5.5c-1-0.6-2-1.1-3-1.7L55.3,172.8z"/>
		<path d="M140.8,174.5l3-1.7l-3.2-5.5c-1,0.6-2,1.2-3,1.7L140.8,174.5z"/>
		<path d="M58.2,24.7l-3,1.7l3.1,5.4c1-0.6,2-1.2,3-1.7L58.2,24.7z"/>
		<path d="M172.7,143.8l1.7-3l-5.5-3.1c-0.6,1-1.1,2-1.7,3L172.7,143.8z"/>
		<path d="M26.3,55.3l-1.7,3l5.4,3.1c0.5-1,1.1-2,1.7-3L26.3,55.3z"/>
		<path d="M24.2,141.3l1.7,3l6-3.4c-0.6-1-1.2-2-1.7-3L24.2,141.3z"/>
		<path d="M174,58.7l-1.7-3l-4.9,2.8c0.6,1,1.2,2,1.7,3L174,58.7z"/>
	</g>
</g>
<g id="Layer_3">
</g>
<g id="Layer_5">
	
		<radialGradient id="SVGID_4_" cx="7200" cy="7201" r="7" gradientTransform="matrix(1 0 0 -1 -7100.5 7300.5)" gradientUnits="userSpaceOnUse">
		<stop  offset="8.800000e-03" style="stop-color:#4D4D4D"/>
		<stop  offset="1" style="stop-color:#000000"/>
	</radialGradient>
	<circle class="st5" cx="99.5" cy="99.5" r="7"/>
	<circle cx="99.5" cy="99.5" r="3"/>
	<script  xmlns=""></script>
</g>
</svg>
